<svg width="115" height="115" viewBox="0 0 115 115" fill="none" xmlns="http://www.w3.org/2000/svg">
<g filter="url(#filter0_d_1_42)">
<mask id="path-1-inside-1_1_42" fill="white">
<path fill-rule="evenodd" clip-rule="evenodd" d="M26.9236 3C14.221 3 3.92358 13.2974 3.92358 26V88.0764C3.92358 100.779 14.221 111.076 26.9236 111.076H89C101.703 111.076 112 100.779 112 88.0764V26C112 13.2975 101.703 3 89 3H26.9236ZM49.1473 70.2899C48.1923 70.2923 47.2601 69.9983 46.4793 69.4484C45.6999 68.8992 45.1065 68.1197 44.7877 67.2162L42.7861 61.0554C42.2838 59.5208 41.4289 58.1252 40.29 56.9807C39.151 55.8362 37.7598 54.9746 36.2277 54.465L30.1432 52.4941C29.233 52.1858 28.4412 51.6016 27.878 50.8228C27.3148 50.0439 27.0079 49.109 27.0002 48.1478C26.9924 47.1867 27.284 46.2469 27.8345 45.459C28.3851 44.6711 29.1672 44.0742 30.0724 43.7512L36.2277 41.7714C37.7077 41.2542 39.0508 40.4074 40.1555 39.2948C41.2602 38.1822 42.0977 36.8331 42.6045 35.3493L44.6283 29.1487C44.9349 28.2376 45.5179 27.4448 46.296 26.8805C47.0742 26.3162 48.0089 26.0085 48.97 26.0002C49.9311 25.9919 50.871 26.2834 51.6587 26.8342C52.4465 27.3851 53.043 28.1677 53.3653 29.0734L55.3669 35.2209C55.8759 36.7457 56.7332 38.1309 57.8709 39.2665C59.0086 40.402 60.3952 41.2567 61.9209 41.7626L68.0098 43.7468C68.9343 44.0358 69.7447 44.6076 70.3271 45.3817C70.9094 46.1557 71.2342 47.0931 71.2557 48.0615C71.2773 49.03 70.9944 49.9808 70.447 50.78C69.8997 51.5792 69.1153 52.1865 68.2046 52.5162L62.0448 54.5093C60.5209 55.0182 59.1364 55.8751 58.0011 57.0121C56.8658 58.1491 56.0109 59.535 55.5042 61.0598L53.5248 67.1409C53.1971 68.0621 52.5992 68.8593 51.811 69.4351C51.0329 69.9889 50.1022 70.2875 49.1473 70.2899ZM75.1773 87.9602C74.6297 87.8778 74.1089 87.669 73.6559 87.3505C73.0573 86.9255 72.6054 86.325 72.3628 85.6321L71.2425 82.204C71.0166 81.4998 70.6269 80.862 70.1 80.335C69.5774 79.8123 68.9397 79.4181 68.2312 79.179L64.8524 78.085C64.1456 77.8537 63.5295 77.4058 63.0914 76.8047C62.6533 76.2037 62.4154 75.4799 62.4115 74.7362C62.4076 73.9923 62.6378 73.2662 63.0695 72.6605C63.5013 72.0549 64.1126 71.6005 64.817 71.3617L68.2401 70.2456C68.9297 70.0057 69.5545 69.6094 70.0654 69.0877C70.5763 68.5659 70.9595 67.9329 71.1849 67.2383L72.2787 63.8634C72.509 63.1562 72.9561 62.5393 73.5564 62.1004C74.1568 61.6614 74.8801 61.4225 75.6238 61.4176C76.3675 61.4127 77.0939 61.642 77.7 62.0731C78.3061 62.5041 78.7612 63.115 79.0009 63.8191L80.1168 67.2428C80.3517 67.9425 80.746 68.578 81.2686 69.0992C81.7912 69.6203 82.4278 70.0128 83.1281 70.2456L86.5113 71.3529C87.2238 71.575 87.848 72.0164 88.2948 72.6142C88.7416 73.2121 88.9883 73.9357 88.9996 74.6821C89.0109 75.4284 88.7862 76.1592 88.3577 76.7703C87.9292 77.3814 87.3186 77.8415 86.6132 78.085L83.1945 79.2011C82.4948 79.4314 81.8571 79.8212 81.3346 80.3527C80.8135 80.8764 80.4196 81.5128 80.1832 82.2129L79.085 85.5878C78.9055 86.1117 78.6065 86.5866 78.2118 86.975C77.8171 87.3634 77.3374 87.6546 76.8107 87.8256C76.2841 87.9966 75.7248 88.0427 75.1773 87.9602Z"/>
</mask>
<path fill-rule="evenodd" clip-rule="evenodd" d="M26.9236 3C14.221 3 3.92358 13.2974 3.92358 26V88.0764C3.92358 100.779 14.221 111.076 26.9236 111.076H89C101.703 111.076 112 100.779 112 88.0764V26C112 13.2975 101.703 3 89 3H26.9236ZM49.1473 70.2899C48.1923 70.2923 47.2601 69.9983 46.4793 69.4484C45.6999 68.8992 45.1065 68.1197 44.7877 67.2162L42.7861 61.0554C42.2838 59.5208 41.4289 58.1252 40.29 56.9807C39.151 55.8362 37.7598 54.9746 36.2277 54.465L30.1432 52.4941C29.233 52.1858 28.4412 51.6016 27.878 50.8228C27.3148 50.0439 27.0079 49.109 27.0002 48.1478C26.9924 47.1867 27.284 46.2469 27.8345 45.459C28.3851 44.6711 29.1672 44.0742 30.0724 43.7512L36.2277 41.7714C37.7077 41.2542 39.0508 40.4074 40.1555 39.2948C41.2602 38.1822 42.0977 36.8331 42.6045 35.3493L44.6283 29.1487C44.9349 28.2376 45.5179 27.4448 46.296 26.8805C47.0742 26.3162 48.0089 26.0085 48.97 26.0002C49.9311 25.9919 50.871 26.2834 51.6587 26.8342C52.4465 27.3851 53.043 28.1677 53.3653 29.0734L55.3669 35.2209C55.8759 36.7457 56.7332 38.1309 57.8709 39.2665C59.0086 40.402 60.3952 41.2567 61.9209 41.7626L68.0098 43.7468C68.9343 44.0358 69.7447 44.6076 70.3271 45.3817C70.9094 46.1557 71.2342 47.0931 71.2557 48.0615C71.2773 49.03 70.9944 49.9808 70.447 50.78C69.8997 51.5792 69.1153 52.1865 68.2046 52.5162L62.0448 54.5093C60.5209 55.0182 59.1364 55.8751 58.0011 57.0121C56.8658 58.1491 56.0109 59.535 55.5042 61.0598L53.5248 67.1409C53.1971 68.0621 52.5992 68.8593 51.811 69.4351C51.0329 69.9889 50.1022 70.2875 49.1473 70.2899ZM75.1773 87.9602C74.6297 87.8778 74.1089 87.669 73.6559 87.3505C73.0573 86.9255 72.6054 86.325 72.3628 85.6321L71.2425 82.204C71.0166 81.4998 70.6269 80.862 70.1 80.335C69.5774 79.8123 68.9397 79.4181 68.2312 79.179L64.8524 78.085C64.1456 77.8537 63.5295 77.4058 63.0914 76.8047C62.6533 76.2037 62.4154 75.4799 62.4115 74.7362C62.4076 73.9923 62.6378 73.2662 63.0695 72.6605C63.5013 72.0549 64.1126 71.6005 64.817 71.3617L68.2401 70.2456C68.9297 70.0057 69.5545 69.6094 70.0654 69.0877C70.5763 68.5659 70.9595 67.9329 71.1849 67.2383L72.2787 63.8634C72.509 63.1562 72.9561 62.5393 73.5564 62.1004C74.1568 61.6614 74.8801 61.4225 75.6238 61.4176C76.3675 61.4127 77.0939 61.642 77.7 62.0731C78.3061 62.5041 78.7612 63.115 79.0009 63.8191L80.1168 67.2428C80.3517 67.9425 80.746 68.578 81.2686 69.0992C81.7912 69.6203 82.4278 70.0128 83.1281 70.2456L86.5113 71.3529C87.2238 71.575 87.848 72.0164 88.2948 72.6142C88.7416 73.2121 88.9883 73.9357 88.9996 74.6821C89.0109 75.4284 88.7862 76.1592 88.3577 76.7703C87.9292 77.3814 87.3186 77.8415 86.6132 78.085L83.1945 79.2011C82.4948 79.4314 81.8571 79.8212 81.3346 80.3527C80.8135 80.8764 80.4196 81.5128 80.1832 82.2129L79.085 85.5878C78.9055 86.1117 78.6065 86.5866 78.2118 86.975C77.8171 87.3634 77.3374 87.6546 76.8107 87.8256C76.2841 87.9966 75.7248 88.0427 75.1773 87.9602Z" fill="url(#paint0_linear_1_42)"/>
<path d="M46.4793 69.4484L45.9033 70.2659L45.9035 70.266L46.4793 69.4484ZM44.7877 67.2162L43.8366 67.5252L43.8405 67.5371L43.8447 67.549L44.7877 67.2162ZM42.7861 61.0554L43.7372 60.7464L43.7365 60.7444L42.7861 61.0554ZM40.29 56.9807L39.5812 57.6861V57.6861L40.29 56.9807ZM36.2277 54.465L36.5434 53.5161L36.5359 53.5137L36.2277 54.465ZM30.1432 52.4941L29.8224 53.4413L29.8351 53.4454L30.1432 52.4941ZM27.0002 48.1478L28.0001 48.1397L27.0002 48.1478ZM27.8345 45.459L27.0148 44.8862L27.8345 45.459ZM30.0724 43.7512L29.7662 42.7992L29.7511 42.8041L29.7363 42.8094L30.0724 43.7512ZM36.2277 41.7714L36.5339 42.7234L36.5458 42.7196L36.5576 42.7154L36.2277 41.7714ZM42.6045 35.3493L43.5509 35.6726L43.5552 35.6596L42.6045 35.3493ZM44.6283 29.1487L43.6805 28.8297L43.6776 28.8384L44.6283 29.1487ZM46.296 26.8805L46.8831 27.69V27.69L46.296 26.8805ZM48.97 26.0002L48.9614 25.0002L48.97 26.0002ZM53.3653 29.0734L54.3162 28.7638L54.312 28.7509L54.3075 28.7381L53.3653 29.0734ZM55.3669 35.2209L54.416 35.5305L54.4184 35.5375L55.3669 35.2209ZM57.8709 39.2665L57.1644 39.9742L57.8709 39.2665ZM61.9209 41.7626L61.6061 42.7118L61.611 42.7134L61.9209 41.7626ZM68.0098 43.7468L67.6999 44.6976L67.7114 44.7012L68.0098 43.7468ZM70.3271 45.3817L71.1262 44.7805L71.1262 44.7805L70.3271 45.3817ZM71.2557 48.0615L72.2555 48.0393V48.0393L71.2557 48.0615ZM70.447 50.78L69.622 50.2149V50.2149L70.447 50.78ZM68.2046 52.5162L68.5125 53.4677L68.5289 53.4624L68.5451 53.4565L68.2046 52.5162ZM62.0448 54.5093L61.737 53.5578L61.7281 53.5608L62.0448 54.5093ZM58.0011 57.0121L58.7088 57.7187V57.7187L58.0011 57.0121ZM55.5042 61.0598L54.5552 60.7445L54.5533 60.7503L55.5042 61.0598ZM53.5248 67.1409L54.4669 67.476L54.4715 67.4633L54.4757 67.4504L53.5248 67.1409ZM51.811 69.4351L52.3909 70.2499L52.4009 70.2426L51.811 69.4351ZM73.6559 87.3505L73.077 88.1659L73.0807 88.1685L73.6559 87.3505ZM75.1773 87.9602L75.3262 86.9714H75.3262L75.1773 87.9602ZM72.3628 85.6321L71.4123 85.9427L71.4155 85.9526L71.419 85.9625L72.3628 85.6321ZM71.2425 82.204L70.2902 82.5094L70.2919 82.5147L71.2425 82.204ZM70.1 80.335L69.3928 81.042V81.042L70.1 80.335ZM68.2312 79.179L68.5511 78.2314L68.5392 78.2276L68.2312 79.179ZM64.8524 78.085L64.5414 79.0354L64.5444 79.0364L64.8524 78.085ZM63.0914 76.8047L62.2833 77.3937H62.2833L63.0914 76.8047ZM62.4115 74.7362L61.4115 74.7414V74.7414L62.4115 74.7362ZM63.0695 72.6605L62.2553 72.0801L62.2553 72.0801L63.0695 72.6605ZM64.817 71.3617L64.507 70.4109L64.4959 70.4147L64.817 71.3617ZM68.2401 70.2456L68.5501 71.1964L68.5594 71.1933L68.5686 71.1901L68.2401 70.2456ZM71.1849 67.2383L72.1361 67.547L72.1362 67.5466L71.1849 67.2383ZM72.2787 63.8634L71.3279 63.5537L71.3274 63.5551L72.2787 63.8634ZM75.6238 61.4176L75.6172 60.4177H75.6172L75.6238 61.4176ZM77.7 62.0731L78.2795 61.2581L78.2795 61.2581L77.7 62.0731ZM79.0009 63.8191L79.9517 63.5092L79.9476 63.497L79.0009 63.8191ZM80.1168 67.2428L79.166 67.5527L79.1688 67.5609L80.1168 67.2428ZM81.2686 69.0992L80.5625 69.8073H80.5625L81.2686 69.0992ZM83.1281 70.2456L82.8126 71.1946L82.817 71.196L83.1281 70.2456ZM86.5113 71.3529L86.2003 72.3033L86.207 72.3055L86.2138 72.3076L86.5113 71.3529ZM88.9996 74.6821L89.9995 74.6669V74.6669L88.9996 74.6821ZM88.3577 76.7703L87.539 76.1961L87.539 76.1961L88.3577 76.7703ZM86.6132 78.085L86.9235 79.0356L86.9315 79.033L86.9395 79.0303L86.6132 78.085ZM83.1945 79.2011L82.8841 78.2505L82.8818 78.2513L83.1945 79.2011ZM81.3346 80.3527L82.0436 81.0579L82.0477 81.0537L81.3346 80.3527ZM80.1832 82.2129L79.2357 81.8929L79.2323 81.9034L80.1832 82.2129ZM79.085 85.5878L80.031 85.912L80.0335 85.9046L80.0359 85.8972L79.085 85.5878ZM78.2118 86.975L77.5104 86.2622L77.5104 86.2622L78.2118 86.975ZM4.92358 26C4.92358 13.8497 14.7733 4 26.9236 4V2C13.6688 2 2.92358 12.7452 2.92358 26H4.92358ZM4.92358 88.0764V26H2.92358V88.0764H4.92358ZM26.9236 110.076C14.7733 110.076 4.92358 100.227 4.92358 88.0764H2.92358C2.92358 101.331 13.6687 112.076 26.9236 112.076V110.076ZM89 110.076H26.9236V112.076H89V110.076ZM111 88.0764C111 100.227 101.15 110.076 89 110.076V112.076C102.255 112.076 113 101.331 113 88.0764H111ZM111 26V88.0764H113V26H111ZM89 4C101.15 4 111 13.8497 111 26H113C113 12.7452 102.255 2 89 2V4ZM26.9236 4H89V2H26.9236V4ZM45.9035 70.266C46.8536 70.9351 47.9878 71.2928 49.1498 71.2899L49.1448 69.2899C48.3968 69.2918 47.6667 69.0615 47.0551 68.6308L45.9035 70.266ZM43.8447 67.549C44.233 68.6495 44.9553 69.5979 45.9033 70.2659L47.0553 68.631C46.4445 68.2006 45.98 67.59 45.7307 66.8834L43.8447 67.549ZM41.835 61.3644L43.8366 67.5252L45.7388 66.9072L43.7372 60.7464L41.835 61.3644ZM39.5812 57.6861C40.6099 58.7198 41.382 59.9803 41.8357 61.3665L43.7365 60.7444C43.1856 59.0612 42.248 57.5306 40.9988 56.2753L39.5812 57.6861ZM35.9121 55.4139C37.2958 55.8741 38.5524 56.6524 39.5812 57.6861L40.9988 56.2753C39.7496 55.0201 38.2237 54.075 36.5434 53.5161L35.9121 55.4139ZM29.8351 53.4454L35.9196 55.4164L36.5359 53.5137L30.4514 51.5428L29.8351 53.4454ZM27.0677 51.4088C27.7526 52.3559 28.7154 53.0663 29.8224 53.4412L30.464 51.547C29.7505 51.3053 29.1299 50.8474 28.6883 50.2368L27.0677 51.4088ZM26.0002 48.1559C26.0097 49.3248 26.3827 50.4617 27.0677 51.4088L28.6883 50.2368C28.2468 49.6262 28.0062 48.8933 28.0001 48.1397L26.0002 48.1559ZM27.0148 44.8862C26.3453 45.8443 25.9907 46.9871 26.0002 48.1559L28.0001 48.1397C27.994 47.3862 28.2226 46.6494 28.6542 46.0318L27.0148 44.8862ZM29.7363 42.8094C28.6355 43.2022 27.6843 43.9281 27.0148 44.8862L28.6542 46.0318C29.0858 45.4142 29.699 44.9462 30.4085 44.693L29.7363 42.8094ZM35.9216 40.8195L29.7662 42.7992L30.3786 44.7032L36.5339 42.7234L35.9216 40.8195ZM39.4459 38.5902C38.448 39.5952 37.2347 40.3602 35.8978 40.8274L36.5576 42.7154C38.1807 42.1482 39.6536 41.2195 40.8651 39.9994L39.4459 38.5902ZM41.6582 35.0261C41.2003 36.3664 40.4438 37.5852 39.4459 38.5902L40.8651 39.9994C42.0766 38.7793 42.995 37.2998 43.5508 35.6726L41.6582 35.0261ZM43.6776 28.8384L41.6539 35.0391L43.5552 35.6596L45.5789 29.459L43.6776 28.8384ZM45.709 26.0709C44.7625 26.7573 44.0535 27.7216 43.6805 28.8297L45.576 29.4677C45.8164 28.7536 46.2733 28.1322 46.8831 27.69L45.709 26.0709ZM48.9614 25.0002C47.7923 25.0103 46.6554 25.3845 45.709 26.0709L46.8831 27.69C47.4929 27.2478 48.2254 27.0066 48.9786 27.0001L48.9614 25.0002ZM52.2318 26.0147C51.2736 25.3448 50.1305 24.9901 48.9614 25.0002L48.9786 27.0001C49.7318 26.9936 50.4684 27.2221 51.0857 27.6538L52.2318 26.0147ZM54.3075 28.7381C53.9155 27.6366 53.1899 26.6847 52.2318 26.0147L51.0857 27.6538C51.7031 28.0854 52.1706 28.6989 52.4232 29.4087L54.3075 28.7381ZM56.3178 34.9113L54.3162 28.7638L52.4145 29.383L54.4161 35.5305L56.3178 34.9113ZM58.5773 38.5587C57.5497 37.5329 56.7752 36.2817 56.3155 34.9043L54.4184 35.5375C54.9765 37.2098 55.9167 38.7289 57.1644 39.9742L58.5773 38.5587ZM62.2356 40.8134C60.8576 40.3564 59.605 39.5844 58.5773 38.5587L57.1644 39.9742C58.4121 41.2196 59.9329 42.1569 61.6061 42.7117L62.2356 40.8134ZM68.3196 42.796L62.2307 40.8118L61.611 42.7134L67.7 44.6976L68.3196 42.796ZM71.1262 44.7805C70.418 43.8392 69.4324 43.1438 68.3082 42.7923L67.7114 44.7012C68.4361 44.9278 69.0714 45.376 69.528 45.9828L71.1262 44.7805ZM72.2555 48.0393C72.2293 46.8616 71.8344 45.7218 71.1262 44.7805L69.528 45.9828C69.9845 46.5897 70.2391 47.3245 70.256 48.0838L72.2555 48.0393ZM71.2721 51.3451C71.9377 50.3732 72.2817 49.217 72.2555 48.0393L70.256 48.0837C70.2729 48.843 70.0511 49.5884 69.622 50.2149L71.2721 51.3451ZM68.5451 53.4565C69.6526 53.0555 70.6064 52.317 71.2721 51.3451L69.622 50.2149C69.1929 50.8415 68.5781 51.3175 67.8642 51.576L68.5451 53.4565ZM62.3527 55.4607L68.5125 53.4677L67.8968 51.5648L61.737 53.5579L62.3527 55.4607ZM58.7088 57.7187C59.7343 56.6916 60.985 55.9175 62.3616 55.4578L61.7281 53.5608C60.0568 54.1189 58.5385 55.0586 57.2935 56.3055L58.7088 57.7187ZM56.4532 61.3752C56.9109 59.9977 57.6832 58.7458 58.7088 57.7187L57.2935 56.3055C56.0485 57.5524 55.1109 59.0722 54.5552 60.7445L56.4532 61.3752ZM54.4757 67.4504L56.4551 61.3694L54.5533 60.7503L52.5739 66.8314L54.4757 67.4504ZM52.4009 70.2426C53.3499 69.5494 54.0713 68.5881 54.4669 67.476L52.5826 66.8058C52.3228 67.5361 51.8485 68.1693 51.2211 68.6276L52.4009 70.2426ZM49.1498 71.2899C50.3117 71.287 51.4441 70.9236 52.3908 70.2499L51.2312 68.6204C50.6217 69.0541 49.8927 69.288 49.1448 69.2899L49.1498 71.2899ZM73.0807 88.1685C73.6606 88.5763 74.3274 88.8435 75.0284 88.9491L75.3262 86.9714C74.9321 86.912 74.5572 86.7618 74.2311 86.5325L73.0807 88.1685ZM71.419 85.9625C71.73 86.851 72.3094 87.621 73.077 88.1659L74.2348 86.5351C73.8051 86.2301 73.4808 85.7991 73.3067 85.3017L71.419 85.9625ZM70.2919 82.5147L71.4123 85.9427L73.3134 85.3214L72.193 81.8933L70.2919 82.5147ZM69.3928 81.042C69.8081 81.4573 70.1133 81.9577 70.2902 82.5094L72.1947 81.8986C71.9199 81.0419 71.4458 80.2667 70.8071 79.6279L69.3928 81.042ZM67.9114 80.1265C68.4761 80.3171 68.9807 80.6298 69.3928 81.042L70.8071 79.6279C70.1741 78.9948 69.4034 78.5192 68.551 78.2315L67.9114 80.1265ZM64.5444 79.0364L67.9232 80.1304L68.5392 78.2276L65.1604 77.1336L64.5444 79.0364ZM62.2833 77.3937C62.845 78.1644 63.635 78.7388 64.5414 79.0354L65.1634 77.1346C64.6562 76.9686 64.214 76.6471 63.8995 76.2157L62.2833 77.3937ZM61.4115 74.7414C61.4165 75.6951 61.7215 76.623 62.2833 77.3937L63.8995 76.2157C63.585 75.7843 63.4143 75.2648 63.4115 74.7309L61.4115 74.7414ZM62.2553 72.0801C61.7017 72.8566 61.4065 73.7877 61.4115 74.7414L63.4115 74.7309C63.4087 74.197 63.5739 73.6757 63.8838 73.241L62.2553 72.0801ZM64.4959 70.4147C63.5928 70.7208 62.8088 71.3035 62.2553 72.0801L63.8838 73.241C64.1937 72.8063 64.6325 72.4802 65.138 72.3088L64.4959 70.4147ZM67.9301 69.2949L64.507 70.411L65.127 72.3125L68.5501 71.1964L67.9301 69.2949ZM69.3509 68.388C68.948 68.7994 68.4553 69.112 67.9115 69.3011L68.5686 71.1901C69.4041 70.8995 70.1609 70.4193 70.7799 69.7873L69.3509 68.388ZM70.2337 66.9296C70.056 67.4774 69.7538 67.9766 69.3509 68.388L70.7799 69.7873C71.3988 69.1553 71.863 68.3885 72.1361 67.547L70.2337 66.9296ZM71.3274 63.5551L70.2336 66.93L72.1362 67.5466L73.23 64.1717L71.3274 63.5551ZM72.9662 61.2931C72.1964 61.856 71.6232 62.6469 71.3279 63.5537L73.2295 64.1731C73.3949 63.6654 73.7158 63.2227 74.1467 62.9076L72.9662 61.2931ZM75.6172 60.4177C74.6636 60.4239 73.7361 60.7302 72.9662 61.2931L74.1467 62.9076C74.5776 62.5926 75.0967 62.4211 75.6304 62.4176L75.6172 60.4177ZM78.2795 61.2581C77.5023 60.7054 76.5709 60.4114 75.6172 60.4177L75.6304 62.4176C76.1641 62.4141 76.6855 62.5787 77.1205 62.888L78.2795 61.2581ZM79.9476 63.497C79.6403 62.5941 79.0568 61.8108 78.2795 61.2581L77.1205 62.888C77.5555 63.1974 77.8822 63.6358 78.0542 64.1413L79.9476 63.497ZM81.0676 66.9328L79.9516 63.5092L78.0501 64.129L79.1661 67.5527L81.0676 66.9328ZM81.9747 68.3911C81.5619 67.9794 81.2504 67.4773 81.0648 66.9246L79.1688 67.5609C79.453 68.4076 79.9301 69.1766 80.5625 69.8073L81.9747 68.3911ZM83.4436 69.2967C82.8904 69.1128 82.3875 68.8028 81.9747 68.3911L80.5625 69.8073C81.1948 70.4379 81.9651 70.9128 82.8126 71.1946L83.4436 69.2967ZM86.8223 70.4025L83.4391 69.2952L82.817 71.196L86.2003 72.3033L86.8223 70.4025ZM89.0958 72.0155C88.5229 71.249 87.7225 70.6829 86.8089 70.3982L86.2138 72.3076C86.7251 72.467 87.1731 72.7838 87.4938 73.2129L89.0958 72.0155ZM89.9995 74.6669C89.985 73.71 89.6687 72.7821 89.0958 72.0155L87.4938 73.2129C87.8146 73.642 87.9916 74.1615 87.9997 74.6972L89.9995 74.6669ZM89.1764 77.3445C89.7259 76.5609 90.0139 75.6238 89.9995 74.6669L87.9997 74.6972C88.0078 75.2329 87.8465 75.7575 87.539 76.1961L89.1764 77.3445ZM86.9395 79.0303C87.8441 78.718 88.6269 78.128 89.1764 77.3445L87.539 76.1961C87.2314 76.6347 86.7932 76.965 86.2869 77.1397L86.9395 79.0303ZM83.5049 80.1517L86.9235 79.0356L86.3028 77.1344L82.8841 78.2505L83.5049 80.1517ZM82.0477 81.0537C82.4556 80.6389 82.9549 80.3328 83.5072 80.151L82.8818 78.2513C82.0347 78.5301 81.2587 79.0035 80.6215 79.6516L82.0477 81.0537ZM81.1307 82.5328C81.3181 81.9778 81.6304 81.4732 82.0435 81.0579L80.6257 79.6474C79.9967 80.2797 79.5212 81.0479 79.2358 81.8929L81.1307 82.5328ZM80.0359 85.8972L81.1342 82.5223L79.2323 81.9034L78.1341 85.2783L80.0359 85.8972ZM78.9131 87.6878C79.4185 87.1906 79.8012 86.5826 80.031 85.912L78.139 85.2636C78.0098 85.6407 77.7946 85.9826 77.5104 86.2622L78.9131 87.6878ZM77.1195 88.7767C77.7938 88.5578 78.4078 88.185 78.9131 87.6878L77.5104 86.2622C77.2263 86.5418 76.881 86.7514 76.5019 86.8744L77.1195 88.7767ZM75.0284 88.9491C75.7294 89.0546 76.4453 88.9956 77.1195 88.7767L76.5019 86.8744C76.1228 86.9975 75.7203 87.0307 75.3262 86.9714L75.0284 88.9491Z" fill="url(#paint1_linear_1_42)" mask="url(#path-1-inside-1_1_42)"/>
</g>
<defs>
<filter id="filter0_d_1_42" x="0.923584" y="0" width="114.076" height="114.076" filterUnits="userSpaceOnUse" color-interpolation-filters="sRGB">
<feFlood flood-opacity="0" result="BackgroundImageFix"/>
<feColorMatrix in="SourceAlpha" type="matrix" values="0 0 0 0 0 0 0 0 0 0 0 0 0 0 0 0 0 0 127 0" result="hardAlpha"/>
<feOffset/>
<feGaussianBlur stdDeviation="1.5"/>
<feComposite in2="hardAlpha" operator="out"/>
<feColorMatrix type="matrix" values="0 0 0 0 0.435417 0 0 0 0 0.435417 0 0 0 0 0.435417 0 0 0 1 0"/>
<feBlend mode="normal" in2="BackgroundImageFix" result="effect1_dropShadow_1_42"/>
<feBlend mode="normal" in="SourceGraphic" in2="effect1_dropShadow_1_42" result="shape"/>
</filter>
<linearGradient id="paint0_linear_1_42" x1="58.5556" y1="3" x2="56.1803" y2="111.076" gradientUnits="userSpaceOnUse">
<stop stop-color="#3C3C3D"/>
<stop offset="1" stop-color="#2D2D2E"/>
</linearGradient>
<linearGradient id="paint1_linear_1_42" x1="51.4297" y1="-8.87653" x2="100.123" y2="114.046" gradientUnits="userSpaceOnUse">
<stop stop-color="white" stop-opacity="0.23"/>
<stop offset="1" stop-color="white" stop-opacity="0"/>
</linearGradient>
</defs>
</svg>
